<svg xmlns="http://www.w3.org/2000/svg" viewBox="0 0 350.84 98.828" fill="currentColor" role="img" aria-label="VAELLO">
  <g transform="translate(1.51,0)">
    <path d="M 39.181 97.846 C 34.7 98.921 29.613 98.921 25.374 98.21 L 0 38.696 L 16.366 38.182 L 32.429 74.683 L 64.464 0 L 347.587 0.03 L 347.768 14.791 L 74.865 14.791 L 39.181 97.846 Z" fill-rule="nonzero"></path>
  </g>
  <g transform="translate(72.471,21.293)">
    <path d="M 40.12 59.654 L 15.654 59.896 L 15.291 77.473 L 0.03 77.201 L 0 28.588 C 0 12.918 11.657 0.792 26.509 0.035 C 41.497 -0.722 55.607 10.981 55.683 27.104 L 55.925 77.261 L 40.513 77.443 L 40.135 59.654 L 40.12 59.654 Z M 40.498 44.075 L 39.923 26.105 C 39.726 19.883 33.171 15.477 27.947 15.538 C 23.163 15.583 16.684 19.307 16.063 25.015 C 15.351 31.6 15.503 37.808 15.775 44.181 L 40.483 44.075 L 40.498 44.075 Z" fill-rule="nonzero"></path>
  </g>
  <g transform="translate(137.117,22.344)">
    <path d="M 41.739 46.1 L 15.972 46.175 L 15.624 61.163 L 41.482 61.39 L 41.452 76.394 L 0.182 76.484 L 0 0.106 L 41.406 0 L 41.603 15.488 L 15.669 15.609 L 15.684 30.567 L 41.482 30.688 L 41.739 46.1 Z" fill-rule="nonzero"></path>
  </g>
  <g transform="translate(190.164,22.605)">
    <path d="M 37.728 61.118 L 37.667 76.151 L 0 76.136 L 0.015 0.061 L 15.488 0 L 15.563 60.876 L 37.728 61.118 Z" fill-rule="nonzero"></path>
  </g>
  <g transform="translate(235.768,22.574)">
    <path d="M 37.546 61.163 L 37.485 76.167 L 0 76.182 L 0.015 0 L 15.473 0.03 L 15.548 60.891 L 37.546 61.163 Z" fill-rule="nonzero"></path>
  </g>
  <g transform="translate(273.957,22.008)">
    <path d="M 76.883 32.503 L 76.883 44.615 C 71.947 64.387 55.536 78.376 35.083 76.635 C 14.629 74.894 -0.298 57.877 0.005 37.817 C 0.322 17.349 16.234 1.013 36.612 0.044 C 56.641 -0.894 72.356 13.125 76.883 32.503 Z M 61.153 38.378 C 61.153 25.766 50.934 15.547 38.322 15.547 C 25.711 15.547 15.492 25.766 15.492 38.378 C 15.492 50.989 25.711 61.208 38.322 61.208 C 50.934 61.208 61.153 50.989 61.153 38.378 Z" fill-rule="nonzero"></path>
  </g>
  <g transform="translate(0,6.051)">
    <path d="M 8.808 19.49 L 8.808 6.091 L 12.806 6.091 C 14.055 6.091 15.055 6.226 15.805 6.497 C 16.575 6.767 17.127 7.194 17.46 7.777 C 17.814 8.34 17.991 9.068 17.991 9.964 C 17.991 10.776 17.762 11.473 17.304 12.056 C 16.846 12.639 16.159 13.108 15.242 13.462 L 18.99 19.49 L 16.492 19.49 L 13.275 14.024 L 10.963 14.024 L 10.963 19.49 L 8.808 19.49 Z M 10.963 12.369 L 12.806 12.369 C 13.785 12.369 14.514 12.171 14.992 11.775 C 15.492 11.38 15.742 10.797 15.742 10.026 C 15.742 9.152 15.471 8.569 14.93 8.277 C 14.409 7.965 13.66 7.809 12.681 7.809 L 10.963 7.809 L 10.963 12.369 Z M 12.869 25.737 C 11.099 25.737 9.433 25.404 7.871 24.738 C 6.309 24.071 4.935 23.155 3.748 21.989 C 2.582 20.802 1.666 19.428 0.999 17.866 C 0.333 16.304 0 14.638 0 12.869 C 0 11.078 0.333 9.412 0.999 7.871 C 1.666 6.309 2.582 4.945 3.748 3.779 C 4.935 2.592 6.309 1.666 7.871 0.999 C 9.433 0.333 11.099 0 12.869 0 C 14.659 0 16.325 0.333 17.866 0.999 C 19.428 1.666 20.792 2.592 21.958 3.779 C 23.145 4.945 24.071 6.309 24.738 7.871 C 25.404 9.412 25.737 11.078 25.737 12.869 C 25.737 14.638 25.404 16.304 24.738 17.866 C 24.071 19.428 23.145 20.802 21.958 21.989 C 20.792 23.155 19.428 24.071 17.866 24.738 C 16.325 25.404 14.659 25.737 12.869 25.737 Z M 12.869 23.988 C 14.409 23.988 15.846 23.707 17.179 23.145 C 18.532 22.562 19.719 21.76 20.74 20.74 C 21.76 19.719 22.551 18.543 23.113 17.21 C 23.696 15.857 23.988 14.409 23.988 12.869 C 23.988 11.328 23.696 9.891 23.113 8.558 C 22.551 7.205 21.76 6.018 20.74 4.997 C 19.719 3.977 18.532 3.186 17.179 2.624 C 15.846 2.041 14.409 1.749 12.869 1.749 C 11.328 1.749 9.88 2.041 8.527 2.624 C 7.194 3.186 6.018 3.977 4.997 4.997 C 3.977 6.018 3.175 7.205 2.592 8.558 C 2.03 9.891 1.749 11.328 1.749 12.869 C 1.749 14.409 2.03 15.857 2.592 17.21 C 3.175 18.543 3.977 19.719 4.997 20.74 C 6.018 21.76 7.194 22.562 8.527 23.145 C 9.88 23.707 11.328 23.988 12.869 23.988 Z" fill-rule="nonzero"></path>
  </g>
</svg>